<?xml version="1.0" standalone="no"?><svg xmlns:xlink="http://www.w3.org/1999/xlink" xmlns="http://www.w3.org/2000/svg" viewBox="0 0 2000 1333.3333333333335" preserveAspectRatio="xMaxYMax slice"><g transform="scale(1.9782393669634026)"><rect x="0" y="0" width="1011" height="674" fill="#111827"/><rect x="33.7" y="33.7" width="16.849999999999994" height="16.849999999999994" fill="#111827"/><path d="M 33.7 33.7 A 8.42 8.42 0 0 1 42.120000000000005 42.120000000000005 L 33.7 42.120000000000005" fill="#70ff7a"/><path d="M 42.13 42.120000000000005 A 8.42 8.42 0 0 1  50.550000000000004 33.7 L 50.550000000000004 42.120000000000005" fill="#70ff7a"/><path d="M 33.7 50.550000000000004 A 8.42 8.42 0 0 0 42.120000000000005 42.13 L 33.7 42.13" fill="#70ff7a"/><path d="M 42.13 42.13 A 8.42 8.42 0 0 0 50.550000000000004 50.550000000000004 L 50.550000000000004 42.13" fill="#70ff7a"/><rect x="117.95" y="33.7" width="16.849999999999994" height="16.849999999999994" fill="#111827"/><polygon points="117.95,33.7 126.37,33.7 117.95,42.120000000000005" fill="#70ff7a"/><polygon points="126.38,33.7 134.79999999999998,33.7 134.79999999999998,42.120000000000005" fill="#70ff7a"/><polygon points="117.95,42.13 126.37,50.550000000000004 117.95,50.550000000000004" fill="#70ff7a"/><polygon points="134.79999999999998,42.13 134.79999999999998,50.550000000000004 126.38,50.550000000000004" fill="#70ff7a"/><rect x="202.2" y="33.7" width="16.849999999999994" height="16.849999999999994" fill="#111827"/><path d="M 202.2 33.7 A 8.42 8.42 0 0 1 210.61999999999998 42.120000000000005 L 202.2 42.120000000000005" fill="#70ff7a"/><path d="M 210.63 42.120000000000005 A 8.42 8.42 0 0 1  219.04999999999998 33.7 L 219.04999999999998 42.120000000000005" fill="#70ff7a"/><path d="M 202.2 50.550000000000004 A 8.42 8.42 0 0 0 210.61999999999998 42.13 L 202.2 42.13" fill="#70ff7a"/><path d="M 210.63 42.13 A 8.42 8.42 0 0 0 219.04999999999998 50.550000000000004 L 219.04999999999998 42.13" fill="#70ff7a"/><rect x="286.45" y="33.7" width="16.849999999999994" height="16.849999999999994" fill="#111827"/><path d="M 286.45 33.7 A 8.42 8.42 0 0 1 294.87 42.120000000000005 L 286.45 42.120000000000005" fill="#70ff7a"/><path d="M 294.88 42.120000000000005 A 8.42 8.42 0 0 1  303.3 33.7 L 303.3 42.120000000000005" fill="#70ff7a"/><path d="M 286.45 50.550000000000004 A 8.42 8.42 0 0 0 294.87 42.13 L 286.45 42.13" fill="#70ff7a"/><path d="M 294.88 42.13 A 8.42 8.42 0 0 0 303.3 50.550000000000004 L 303.3 42.13" fill="#70ff7a"/><rect x="370.7" y="33.7" width="16.849999999999994" height="16.849999999999994" fill="#111827"/><circle cx="374.90999999999997" cy="37.910000000000004" r="4.21" fill="#70ff7a"/><rect x="379.13" y="33.7" width="8.42" height="8.42" fill="#70ff7a"/><circle cx="374.90999999999997" cy="46.34" r="4.21" fill="#70ff7a"/><rect x="379.13" y="42.13" width="8.42" height="8.42" fill="#70ff7a"/><rect x="454.95" y="33.7" width="16.849999999999994" height="16.849999999999994" fill="#111827"/><path d="M 454.95 42.120000000000005 A 8.42 8.42 0 0 0 463.37 33.7 L 454.95 33.7" fill="#70ff7a"/><path d="M 463.38 33.7 A 8.42 8.42 0 0 0 471.8 42.120000000000005 L 471.8 33.7" fill="#70ff7a"/><path d="M 454.95 42.13 A 8.42 8.42 0 0 1 463.37 50.550000000000004 L 454.95 50.550000000000004" fill="#70ff7a"/><path d="M 463.38 50.550000000000004 A 8.42 8.42 0 0 1  471.8 42.13 L 471.8 50.550000000000004" fill="#70ff7a"/><rect x="539.2" y="33.7" width="16.849999999999994" height="16.849999999999994" fill="#111827"/><path d="M 539.2 33.7 A 8.42 8.42 0 0 1 547.62 42.120000000000005 L 539.2 42.120000000000005" fill="#70ff7a"/><path d="M 547.63 42.120000000000005 A 8.42 8.42 0 0 1  556.05 33.7 L 556.05 42.120000000000005" fill="#70ff7a"/><path d="M 539.2 50.550000000000004 A 8.42 8.42 0 0 0 547.62 42.13 L 539.2 42.13" fill="#70ff7a"/><path d="M 547.63 42.13 A 8.42 8.42 0 0 0 556.05 50.550000000000004 L 556.05 42.13" fill="#70ff7a"/><rect x="623.45" y="33.7" width="16.849999999999994" height="16.849999999999994" fill="#111827"/><path d="M 623.45 33.7 A 8.42 8.42 0 0 0 631.87 42.120000000000005 L 631.87 33.7" fill="#70ff7a"/><path d="M 631.88 42.120000000000005 A 8.42 8.42 0 0 0 640.3 33.7 L 631.88 33.7" fill="#70ff7a"/><path d="M 623.45 50.550000000000004 A 8.42 8.42 0 0 1  631.87 42.13 L 631.87 50.550000000000004" fill="#70ff7a"/><path d="M 631.88 42.13 A 8.42 8.42 0 0 1 640.3 50.550000000000004 L 631.88 50.550000000000004" fill="#70ff7a"/><rect x="707.7" y="33.7" width="16.849999999999994" height="16.849999999999994" fill="#111827"/><path d="M 707.7 42.120000000000005 A 8.42 8.42 0 0 1 716.12 33.7 L 716.12 35.805 A 6.3149999999999995 6.3149999999999995 0 0 0 709.8050000000001 42.120000000000005" fill="#70ff7a"/><path d="M 716.13 33.7 A 8.42 8.42 0 0 1 724.55 42.120000000000005 L 722.445 42.120000000000005 A 6.3149999999999995 6.3149999999999995 0 0 0 716.13 35.805" fill="#70ff7a"/><path d="M 707.7 42.13 A 8.42 8.42 0 0 0 716.12 50.550000000000004 L 716.12 48.445 A 6.3149999999999995 6.3149999999999995 0 0 1 709.8050000000001 42.13" fill="#70ff7a"/><path d="M 716.13 50.550000000000004 A 8.42 8.42 0 0 0 724.55 42.13 L 722.445 42.13 A 6.3149999999999995 6.3149999999999995 0 0 1 716.13 48.445" fill="#70ff7a"/><rect x="791.95" y="33.7" width="16.849999999999994" height="16.849999999999994" fill="#111827"/><circle cx="796.1600000000001" cy="37.910000000000004" r="4.21" fill="#70ff7a"/><rect x="800.38" y="33.7" width="8.42" height="8.42" fill="#70ff7a"/><circle cx="796.1600000000001" cy="46.34" r="4.21" fill="#70ff7a"/><rect x="800.38" y="42.13" width="8.42" height="8.42" fill="#70ff7a"/><rect x="876.2" y="33.7" width="16.849999999999994" height="16.849999999999994" fill="#111827"/><path d="M 876.2 42.120000000000005 A 8.42 8.42 0 0 0 884.62 33.7 L 876.2 33.7" fill="#70ff7a"/><path d="M 884.63 33.7 A 8.42 8.42 0 0 0 893.05 42.120000000000005 L 893.05 33.7" fill="#70ff7a"/><path d="M 876.2 42.13 A 8.42 8.42 0 0 1 884.62 50.550000000000004 L 876.2 50.550000000000004" fill="#70ff7a"/><path d="M 884.63 50.550000000000004 A 8.42 8.42 0 0 1  893.05 42.13 L 893.05 50.550000000000004" fill="#70ff7a"/><rect x="960.45" y="33.7" width="16.849999999999994" height="16.849999999999994" fill="#111827"/><path d="M 960.45 33.7 A 8.42 8.42 0 0 1 968.87 42.120000000000005 L 960.45 42.120000000000005" fill="#70ff7a"/><path d="M 968.88 42.120000000000005 A 8.42 8.42 0 0 1  977.3 33.7 L 977.3 42.120000000000005" fill="#70ff7a"/><path d="M 960.45 50.550000000000004 A 8.42 8.42 0 0 0 968.87 42.13 L 960.45 42.13" fill="#70ff7a"/><path d="M 968.88 42.13 A 8.42 8.42 0 0 0 977.3 50.550000000000004 L 977.3 42.13" fill="#70ff7a"/><rect x="33.7" y="117.95" width="16.849999999999994" height="16.849999999999994" fill="#111827"/><circle cx="37.910000000000004" cy="122.16" r="4.21" fill="#70ff7a"/><rect x="42.13" y="117.95" width="8.42" height="8.42" fill="#70ff7a"/><circle cx="37.910000000000004" cy="130.59" r="4.21" fill="#70ff7a"/><rect x="42.13" y="126.38" width="8.42" height="8.42" fill="#70ff7a"/><rect x="117.95" y="117.95" width="16.849999999999994" height="16.849999999999994" fill="#111827"/><polygon points="117.95,117.95 126.37,117.95 117.95,126.37" fill="#70ff7a"/><polygon points="126.38,117.95 134.79999999999998,117.95 134.79999999999998,126.37" fill="#70ff7a"/><polygon points="117.95,126.38 126.37,134.79999999999998 117.95,134.79999999999998" fill="#70ff7a"/><polygon points="134.79999999999998,126.38 134.79999999999998,134.79999999999998 126.38,134.79999999999998" fill="#70ff7a"/><rect x="202.2" y="117.95" width="16.849999999999994" height="16.849999999999994" fill="#111827"/><path d="M 202.2 126.37 A 8.42 8.42 0 0 1  210.61999999999998 117.95 L 210.61999999999998 126.37" fill="#70ff7a"/><path d="M 210.63 117.95 A 8.42 8.42 0 0 1 219.04999999999998 126.37 L 210.63 126.37" fill="#70ff7a"/><path d="M 202.2 126.38 A 8.42 8.42 0 0 0 210.61999999999998 134.79999999999998 L 210.61999999999998 126.38" fill="#70ff7a"/><path d="M 210.63 134.79999999999998 A 8.42 8.42 0 0 0 219.04999999999998 126.38 L 210.63 126.38" fill="#70ff7a"/><rect x="286.45" y="117.95" width="16.849999999999994" height="16.849999999999994" fill="#111827"/><polygon points="286.45,117.95 294.87,117.95 286.45,126.37" fill="#70ff7a"/><polygon points="303.3,117.95 303.3,126.37 294.88,126.37" fill="#70ff7a"/><polygon points="286.45,126.38 294.87,126.38 294.87,134.79999999999998" fill="#70ff7a"/><polygon points="294.88,126.38 303.3,134.79999999999998 294.88,134.79999999999998" fill="#70ff7a"/><rect x="370.7" y="117.95" width="16.849999999999994" height="16.849999999999994" fill="#111827"/><path d="M 370.7 117.95 A 8.42 8.42 0 0 1 379.12 126.37 L 370.7 126.37" fill="#70ff7a"/><path d="M 379.13 126.37 A 8.42 8.42 0 0 1  387.55 117.95 L 387.55 126.37" fill="#70ff7a"/><path d="M 370.7 134.79999999999998 A 8.42 8.42 0 0 0 379.12 126.38 L 370.7 126.38" fill="#70ff7a"/><path d="M 379.13 126.38 A 8.42 8.42 0 0 0 387.55 134.79999999999998 L 387.55 126.38" fill="#70ff7a"/><rect x="454.95" y="117.95" width="16.849999999999994" height="16.849999999999994" fill="#111827"/><polygon points="454.95,117.95 463.37,117.95 454.95,126.37" fill="#70ff7a"/><polygon points="463.38,117.95 471.8,117.95 471.8,126.37" fill="#70ff7a"/><polygon points="463.37,126.38 463.37,134.79999999999998 454.95,134.79999999999998" fill="#70ff7a"/><polygon points="463.38,126.38 471.8,134.79999999999998 463.38,134.79999999999998" fill="#70ff7a"/><rect x="539.2" y="117.95" width="16.849999999999994" height="16.849999999999994" fill="#111827"/><path d="M 539.2 126.37 A 8.42 8.42 0 0 1 547.62 117.95 L 547.62 120.055 A 6.3149999999999995 6.3149999999999995 0 0 0 541.3050000000001 126.37" fill="#70ff7a"/><path d="M 547.63 117.95 A 8.42 8.42 0 0 1 556.05 126.37 L 553.945 126.37 A 6.3149999999999995 6.3149999999999995 0 0 0 547.63 120.055" fill="#70ff7a"/><path d="M 539.2 126.38 A 8.42 8.42 0 0 0 547.62 134.79999999999998 L 547.62 132.695 A 6.3149999999999995 6.3149999999999995 0 0 1 541.3050000000001 126.38" fill="#70ff7a"/><path d="M 547.63 134.79999999999998 A 8.42 8.42 0 0 0 556.05 126.38 L 553.945 126.38 A 6.3149999999999995 6.3149999999999995 0 0 1 547.63 132.695" fill="#70ff7a"/><rect x="623.45" y="117.95" width="16.849999999999994" height="16.849999999999994" fill="#111827"/><path d="M 623.45 117.95 A 8.42 8.42 0 0 1 631.87 126.37 L 623.45 126.37" fill="#70ff7a"/><path d="M 631.88 126.37 A 8.42 8.42 0 0 1  640.3 117.95 L 640.3 126.37" fill="#70ff7a"/><path d="M 623.45 134.79999999999998 A 8.42 8.42 0 0 0 631.87 126.38 L 623.45 126.38" fill="#70ff7a"/><path d="M 631.88 126.38 A 8.42 8.42 0 0 0 640.3 134.79999999999998 L 640.3 126.38" fill="#70ff7a"/><rect x="707.7" y="117.95" width="16.849999999999994" height="16.849999999999994" fill="#111827"/><polygon points="707.7,117.95 716.12,117.95 707.7,126.37" fill="#70ff7a"/><polygon points="716.13,117.95 724.55,117.95 724.55,126.37" fill="#70ff7a"/><polygon points="707.7,126.38 716.12,134.79999999999998 707.7,134.79999999999998" fill="#70ff7a"/><polygon points="724.55,126.38 724.55,134.79999999999998 716.13,134.79999999999998" fill="#70ff7a"/><rect x="791.95" y="117.95" width="16.849999999999994" height="16.849999999999994" fill="#111827"/><polygon points="791.95,117.95 800.37,117.95 791.95,126.37" fill="#70ff7a"/><polygon points="800.38,117.95 808.8,117.95 808.8,126.37" fill="#70ff7a"/><polygon points="800.37,126.38 800.37,134.79999999999998 791.95,134.79999999999998" fill="#70ff7a"/><polygon points="800.38,126.38 808.8,134.79999999999998 800.38,134.79999999999998" fill="#70ff7a"/><rect x="876.2" y="117.95" width="16.849999999999994" height="16.849999999999994" fill="#111827"/><polygon points="876.2,117.95 884.62,117.95 876.2,126.37" fill="#70ff7a"/><polygon points="884.63,117.95 893.05,117.95 893.05,126.37" fill="#70ff7a"/><polygon points="876.2,126.38 884.62,134.79999999999998 876.2,134.79999999999998" fill="#70ff7a"/><polygon points="893.05,126.38 893.05,134.79999999999998 884.63,134.79999999999998" fill="#70ff7a"/><rect x="960.45" y="117.95" width="16.849999999999994" height="16.849999999999994" fill="#111827"/><path d="M 960.45 126.37 A 8.42 8.42 0 0 1  968.87 117.95 L 968.87 126.37" fill="#70ff7a"/><path d="M 968.88 117.95 A 8.42 8.42 0 0 1 977.3 126.37 L 968.88 126.37" fill="#70ff7a"/><path d="M 960.45 126.38 A 8.42 8.42 0 0 0 968.87 134.79999999999998 L 968.87 126.38" fill="#70ff7a"/><path d="M 968.88 134.79999999999998 A 8.42 8.42 0 0 0 977.3 126.38 L 968.88 126.38" fill="#70ff7a"/><rect x="33.7" y="202.2" width="16.849999999999994" height="16.849999999999994" fill="#111827"/><path d="M 33.7 210.61999999999998 A 8.42 8.42 0 0 0 42.120000000000005 202.2 L 33.7 202.2" fill="#70ff7a"/><path d="M 42.13 202.2 A 8.42 8.42 0 0 0 50.550000000000004 210.61999999999998 L 50.550000000000004 202.2" fill="#70ff7a"/><path d="M 33.7 210.63 A 8.42 8.42 0 0 1 42.120000000000005 219.04999999999998 L 33.7 219.04999999999998" fill="#70ff7a"/><path d="M 42.13 219.04999999999998 A 8.42 8.42 0 0 1  50.550000000000004 210.63 L 50.550000000000004 219.04999999999998" fill="#70ff7a"/><rect x="117.95" y="202.2" width="16.849999999999994" height="16.849999999999994" fill="#111827"/><path d="M 117.95 210.61999999999998 A 8.42 8.42 0 0 0 126.37 202.2 L 117.95 202.2" fill="#70ff7a"/><path d="M 126.38 202.2 A 8.42 8.42 0 0 0 134.79999999999998 210.61999999999998 L 134.79999999999998 202.2" fill="#70ff7a"/><path d="M 117.95 210.63 A 8.42 8.42 0 0 1 126.37 219.04999999999998 L 117.95 219.04999999999998" fill="#70ff7a"/><path d="M 126.38 219.04999999999998 A 8.42 8.42 0 0 1  134.79999999999998 210.63 L 134.79999999999998 219.04999999999998" fill="#70ff7a"/><rect x="202.2" y="202.2" width="16.849999999999994" height="16.849999999999994" fill="#111827"/><path d="M 202.2 210.61999999999998 A 8.42 8.42 0 0 1  210.61999999999998 202.2 L 210.61999999999998 210.61999999999998" fill="#70ff7a"/><path d="M 210.63 202.2 A 8.42 8.42 0 0 1 219.04999999999998 210.61999999999998 L 210.63 210.61999999999998" fill="#70ff7a"/><path d="M 202.2 210.63 A 8.42 8.42 0 0 0 210.61999999999998 219.04999999999998 L 210.61999999999998 210.63" fill="#70ff7a"/><path d="M 210.63 219.04999999999998 A 8.42 8.42 0 0 0 219.04999999999998 210.63 L 210.63 210.63" fill="#70ff7a"/><rect x="286.45" y="202.2" width="16.849999999999994" height="16.849999999999994" fill="#111827"/><path d="M 286.45 210.61999999999998 A 8.42 8.42 0 0 0 294.87 202.2 L 286.45 202.2" fill="#70ff7a"/><path d="M 294.88 202.2 A 8.42 8.42 0 0 0 303.3 210.61999999999998 L 303.3 202.2" fill="#70ff7a"/><path d="M 286.45 210.63 A 8.42 8.42 0 0 1 294.87 219.04999999999998 L 286.45 219.04999999999998" fill="#70ff7a"/><path d="M 294.88 219.04999999999998 A 8.42 8.42 0 0 1  303.3 210.63 L 303.3 219.04999999999998" fill="#70ff7a"/><rect x="370.7" y="202.2" width="16.849999999999994" height="16.849999999999994" fill="#111827"/><polygon points="370.7,202.2 379.12,202.2 370.7,210.61999999999998" fill="#70ff7a"/><polygon points="379.13,202.2 387.55,202.2 387.55,210.61999999999998" fill="#70ff7a"/><polygon points="379.12,210.63 379.12,219.04999999999998 370.7,219.04999999999998" fill="#70ff7a"/><polygon points="379.13,210.63 387.55,219.04999999999998 379.13,219.04999999999998" fill="#70ff7a"/><rect x="454.95" y="202.2" width="16.849999999999994" height="16.849999999999994" fill="#111827"/><circle cx="459.15999999999997" cy="206.41" r="4.21" fill="#70ff7a"/><rect x="463.38" y="202.2" width="8.42" height="8.42" fill="#70ff7a"/><circle cx="459.15999999999997" cy="214.84" r="4.21" fill="#70ff7a"/><rect x="463.38" y="210.63" width="8.42" height="8.42" fill="#70ff7a"/><rect x="539.2" y="202.2" width="16.849999999999994" height="16.849999999999994" fill="#111827"/><path d="M 539.2 210.61999999999998 A 8.42 8.42 0 0 1  547.62 202.2 L 547.62 210.61999999999998" fill="#70ff7a"/><path d="M 547.63 202.2 A 8.42 8.42 0 0 1 556.05 210.61999999999998 L 547.63 210.61999999999998" fill="#70ff7a"/><path d="M 539.2 210.63 A 8.42 8.42 0 0 0 547.62 219.04999999999998 L 547.62 210.63" fill="#70ff7a"/><path d="M 547.63 219.04999999999998 A 8.42 8.42 0 0 0 556.05 210.63 L 547.63 210.63" fill="#70ff7a"/><rect x="623.45" y="202.2" width="16.849999999999994" height="16.849999999999994" fill="#111827"/><polygon points="623.45,202.2 631.87,202.2 623.45,210.61999999999998" fill="#70ff7a"/><polygon points="631.88,202.2 640.3,202.2 640.3,210.61999999999998" fill="#70ff7a"/><polygon points="631.87,210.63 631.87,219.04999999999998 623.45,219.04999999999998" fill="#70ff7a"/><polygon points="631.88,210.63 640.3,219.04999999999998 631.88,219.04999999999998" fill="#70ff7a"/><rect x="707.7" y="202.2" width="16.849999999999994" height="16.849999999999994" fill="#111827"/><path d="M 707.7 210.61999999999998 A 8.42 8.42 0 0 1 716.12 202.2 L 716.12 204.30499999999998 A 6.3149999999999995 6.3149999999999995 0 0 0 709.8050000000001 210.61999999999998" fill="#70ff7a"/><path d="M 716.13 202.2 A 8.42 8.42 0 0 1 724.55 210.61999999999998 L 722.445 210.61999999999998 A 6.3149999999999995 6.3149999999999995 0 0 0 716.13 204.30499999999998" fill="#70ff7a"/><path d="M 707.7 210.63 A 8.42 8.42 0 0 0 716.12 219.04999999999998 L 716.12 216.945 A 6.3149999999999995 6.3149999999999995 0 0 1 709.8050000000001 210.63" fill="#70ff7a"/><path d="M 716.13 219.04999999999998 A 8.42 8.42 0 0 0 724.55 210.63 L 722.445 210.63 A 6.3149999999999995 6.3149999999999995 0 0 1 716.13 216.945" fill="#70ff7a"/><rect x="791.95" y="202.2" width="16.849999999999994" height="16.849999999999994" fill="#111827"/><path d="M 791.95 202.2 A 8.42 8.42 0 0 1 800.37 210.61999999999998 L 791.95 210.61999999999998" fill="#70ff7a"/><path d="M 800.38 210.61999999999998 A 8.42 8.42 0 0 1  808.8 202.2 L 808.8 210.61999999999998" fill="#70ff7a"/><path d="M 791.95 219.04999999999998 A 8.42 8.42 0 0 0 800.37 210.63 L 791.95 210.63" fill="#70ff7a"/><path d="M 800.38 210.63 A 8.42 8.42 0 0 0 808.8 219.04999999999998 L 808.8 210.63" fill="#70ff7a"/><rect x="876.2" y="202.2" width="16.849999999999994" height="16.849999999999994" fill="#111827"/><path d="M 876.2 202.2 A 8.42 8.42 0 0 0 884.62 210.61999999999998 L 884.62 202.2" fill="#70ff7a"/><path d="M 884.63 210.61999999999998 A 8.42 8.42 0 0 0 893.05 202.2 L 884.63 202.2" fill="#70ff7a"/><path d="M 876.2 219.04999999999998 A 8.42 8.42 0 0 1  884.62 210.63 L 884.62 219.04999999999998" fill="#70ff7a"/><path d="M 884.63 210.63 A 8.42 8.42 0 0 1 893.05 219.04999999999998 L 884.63 219.04999999999998" fill="#70ff7a"/><rect x="960.45" y="202.2" width="16.849999999999994" height="16.849999999999994" fill="#111827"/><path d="M 960.45 210.61999999999998 A 8.42 8.42 0 0 1 968.87 202.2 L 968.87 204.30499999999998 A 6.3149999999999995 6.3149999999999995 0 0 0 962.5550000000001 210.61999999999998" fill="#70ff7a"/><path d="M 968.88 202.2 A 8.42 8.42 0 0 1 977.3 210.61999999999998 L 975.195 210.61999999999998 A 6.3149999999999995 6.3149999999999995 0 0 0 968.88 204.30499999999998" fill="#70ff7a"/><path d="M 960.45 210.63 A 8.42 8.42 0 0 0 968.87 219.04999999999998 L 968.87 216.945 A 6.3149999999999995 6.3149999999999995 0 0 1 962.5550000000001 210.63" fill="#70ff7a"/><path d="M 968.88 219.04999999999998 A 8.42 8.42 0 0 0 977.3 210.63 L 975.195 210.63 A 6.3149999999999995 6.3149999999999995 0 0 1 968.88 216.945" fill="#70ff7a"/><rect x="33.7" y="286.45" width="16.849999999999994" height="16.849999999999994" fill="#111827"/><path d="M 33.7 294.87 A 8.42 8.42 0 0 0 42.120000000000005 286.45 L 33.7 286.45" fill="#70ff7a"/><path d="M 42.13 286.45 A 8.42 8.42 0 0 0 50.550000000000004 294.87 L 50.550000000000004 286.45" fill="#70ff7a"/><path d="M 33.7 294.88 A 8.42 8.42 0 0 1 42.120000000000005 303.3 L 33.7 303.3" fill="#70ff7a"/><path d="M 42.13 303.3 A 8.42 8.42 0 0 1  50.550000000000004 294.88 L 50.550000000000004 303.3" fill="#70ff7a"/><rect x="117.95" y="286.45" width="16.849999999999994" height="16.849999999999994" fill="#111827"/><path d="M 117.95 286.45 A 8.42 8.42 0 0 0 126.37 294.87 L 126.37 286.45" fill="#70ff7a"/><path d="M 126.38 294.87 A 8.42 8.42 0 0 0 134.79999999999998 286.45 L 126.38 286.45" fill="#70ff7a"/><path d="M 117.95 303.3 A 8.42 8.42 0 0 1  126.37 294.88 L 126.37 303.3" fill="#70ff7a"/><path d="M 126.38 294.88 A 8.42 8.42 0 0 1 134.79999999999998 303.3 L 126.38 303.3" fill="#70ff7a"/><rect x="202.2" y="286.45" width="16.849999999999994" height="16.849999999999994" fill="#111827"/><polygon points="202.2,286.45 210.61999999999998,286.45 202.2,294.87" fill="#70ff7a"/><polygon points="210.63,286.45 219.04999999999998,286.45 219.04999999999998,294.87" fill="#70ff7a"/><polygon points="210.61999999999998,294.88 210.61999999999998,303.3 202.2,303.3" fill="#70ff7a"/><polygon points="210.63,294.88 219.04999999999998,303.3 210.63,303.3" fill="#70ff7a"/><rect x="286.45" y="286.45" width="16.849999999999994" height="16.849999999999994" fill="#111827"/><path d="M 286.45 286.45 A 8.42 8.42 0 0 1 294.87 294.87 L 286.45 294.87" fill="#70ff7a"/><path d="M 294.88 294.87 A 8.42 8.42 0 0 1  303.3 286.45 L 303.3 294.87" fill="#70ff7a"/><path d="M 286.45 303.3 A 8.42 8.42 0 0 0 294.87 294.88 L 286.45 294.88" fill="#70ff7a"/><path d="M 294.88 294.88 A 8.42 8.42 0 0 0 303.3 303.3 L 303.3 294.88" fill="#70ff7a"/><rect x="370.7" y="286.45" width="16.849999999999994" height="16.849999999999994" fill="#111827"/><path d="M 370.7 294.87 A 8.42 8.42 0 0 0 379.12 286.45 L 370.7 286.45" fill="#70ff7a"/><path d="M 379.13 286.45 A 8.42 8.42 0 0 0 387.55 294.87 L 387.55 286.45" fill="#70ff7a"/><path d="M 370.7 294.88 A 8.42 8.42 0 0 1 379.12 303.3 L 370.7 303.3" fill="#70ff7a"/><path d="M 379.13 303.3 A 8.42 8.42 0 0 1  387.55 294.88 L 387.55 303.3" fill="#70ff7a"/><rect x="454.95" y="286.45" width="16.849999999999994" height="16.849999999999994" fill="#111827"/><path d="M 454.95 294.87 A 8.42 8.42 0 0 0 463.37 286.45 L 454.95 286.45" fill="#70ff7a"/><path d="M 463.38 286.45 A 8.42 8.42 0 0 0 471.8 294.87 L 471.8 286.45" fill="#70ff7a"/><path d="M 454.95 294.88 A 8.42 8.42 0 0 1 463.37 303.3 L 454.95 303.3" fill="#70ff7a"/><path d="M 463.38 303.3 A 8.42 8.42 0 0 1  471.8 294.88 L 471.8 303.3" fill="#70ff7a"/><rect x="539.2" y="286.45" width="16.849999999999994" height="16.849999999999994" fill="#111827"/><path d="M 539.2 294.87 A 8.42 8.42 0 0 1 547.62 286.45 L 547.62 288.555 A 6.3149999999999995 6.3149999999999995 0 0 0 541.3050000000001 294.87" fill="#70ff7a"/><path d="M 547.63 286.45 A 8.42 8.42 0 0 1 556.05 294.87 L 553.945 294.87 A 6.3149999999999995 6.3149999999999995 0 0 0 547.63 288.555" fill="#70ff7a"/><path d="M 539.2 294.88 A 8.42 8.42 0 0 0 547.62 303.3 L 547.62 301.195 A 6.3149999999999995 6.3149999999999995 0 0 1 541.3050000000001 294.88" fill="#70ff7a"/><path d="M 547.63 303.3 A 8.42 8.42 0 0 0 556.05 294.88 L 553.945 294.88 A 6.3149999999999995 6.3149999999999995 0 0 1 547.63 301.195" fill="#70ff7a"/><rect x="623.45" y="286.45" width="16.849999999999994" height="16.849999999999994" fill="#111827"/><polygon points="623.45,286.45 631.87,286.45 623.45,294.87" fill="#70ff7a"/><polygon points="631.88,286.45 640.3,286.45 640.3,294.87" fill="#70ff7a"/><polygon points="631.87,294.88 631.87,303.3 623.45,303.3" fill="#70ff7a"/><polygon points="631.88,294.88 640.3,303.3 631.88,303.3" fill="#70ff7a"/><rect x="707.7" y="286.45" width="16.849999999999994" height="16.849999999999994" fill="#111827"/><polygon points="707.7,286.45 716.12,286.45 707.7,294.87" fill="#70ff7a"/><polygon points="716.13,286.45 724.55,286.45 724.55,294.87" fill="#70ff7a"/><polygon points="716.12,294.88 716.12,303.3 707.7,303.3" fill="#70ff7a"/><polygon points="716.13,294.88 724.55,303.3 716.13,303.3" fill="#70ff7a"/><rect x="791.95" y="286.45" width="16.849999999999994" height="16.849999999999994" fill="#111827"/><path d="M 791.95 294.87 A 8.42 8.42 0 0 1 800.37 286.45 L 800.37 288.555 A 6.3149999999999995 6.3149999999999995 0 0 0 794.0550000000001 294.87" fill="#70ff7a"/><path d="M 800.38 286.45 A 8.42 8.42 0 0 1 808.8 294.87 L 806.695 294.87 A 6.3149999999999995 6.3149999999999995 0 0 0 800.38 288.555" fill="#70ff7a"/><path d="M 791.95 294.88 A 8.42 8.42 0 0 0 800.37 303.3 L 800.37 301.195 A 6.3149999999999995 6.3149999999999995 0 0 1 794.0550000000001 294.88" fill="#70ff7a"/><path d="M 800.38 303.3 A 8.42 8.42 0 0 0 808.8 294.88 L 806.695 294.88 A 6.3149999999999995 6.3149999999999995 0 0 1 800.38 301.195" fill="#70ff7a"/><rect x="876.2" y="286.45" width="16.849999999999994" height="16.849999999999994" fill="#111827"/><polygon points="876.2,286.45 884.62,286.45 876.2,294.87" fill="#70ff7a"/><polygon points="884.63,286.45 893.05,286.45 893.05,294.87" fill="#70ff7a"/><polygon points="876.2,294.88 884.62,303.3 876.2,303.3" fill="#70ff7a"/><polygon points="893.05,294.88 893.05,303.3 884.63,303.3" fill="#70ff7a"/><rect x="960.45" y="286.45" width="16.849999999999994" height="16.849999999999994" fill="#111827"/><polygon points="960.45,286.45 968.87,286.45 960.45,294.87" fill="#70ff7a"/><polygon points="968.88,286.45 977.3,286.45 977.3,294.87" fill="#70ff7a"/><polygon points="968.87,294.88 968.87,303.3 960.45,303.3" fill="#70ff7a"/><polygon points="968.88,294.88 977.3,303.3 968.88,303.3" fill="#70ff7a"/><rect x="33.7" y="370.7" width="16.849999999999994" height="16.849999999999994" fill="#111827"/><path d="M 33.7 379.12 A 8.42 8.42 0 0 1  42.120000000000005 370.7 L 42.120000000000005 379.12" fill="#70ff7a"/><path d="M 42.13 370.7 A 8.42 8.42 0 0 1 50.550000000000004 379.12 L 42.13 379.12" fill="#70ff7a"/><path d="M 33.7 379.13 A 8.42 8.42 0 0 0 42.120000000000005 387.55 L 42.120000000000005 379.13" fill="#70ff7a"/><path d="M 42.13 387.55 A 8.42 8.42 0 0 0 50.550000000000004 379.13 L 42.13 379.13" fill="#70ff7a"/><rect x="117.95" y="370.7" width="16.849999999999994" height="16.849999999999994" fill="#111827"/><path d="M 117.95 370.7 A 8.42 8.42 0 0 0 126.37 379.12 L 126.37 370.7" fill="#70ff7a"/><path d="M 126.38 379.12 A 8.42 8.42 0 0 0 134.79999999999998 370.7 L 126.38 370.7" fill="#70ff7a"/><path d="M 117.95 387.55 A 8.42 8.42 0 0 1  126.37 379.13 L 126.37 387.55" fill="#70ff7a"/><path d="M 126.38 379.13 A 8.42 8.42 0 0 1 134.79999999999998 387.55 L 126.38 387.55" fill="#70ff7a"/><rect x="202.2" y="370.7" width="16.849999999999994" height="16.849999999999994" fill="#111827"/><path d="M 202.2 370.7 A 8.42 8.42 0 0 0 210.61999999999998 379.12 L 210.61999999999998 370.7" fill="#70ff7a"/><path d="M 210.63 379.12 A 8.42 8.42 0 0 0 219.04999999999998 370.7 L 210.63 370.7" fill="#70ff7a"/><path d="M 202.2 387.55 A 8.42 8.42 0 0 1  210.61999999999998 379.13 L 210.61999999999998 387.55" fill="#70ff7a"/><path d="M 210.63 379.13 A 8.42 8.42 0 0 1 219.04999999999998 387.55 L 210.63 387.55" fill="#70ff7a"/><rect x="286.45" y="370.7" width="16.849999999999994" height="16.849999999999994" fill="#111827"/><path d="M 286.45 370.7 A 8.42 8.42 0 0 1 294.87 379.12 L 286.45 379.12" fill="#70ff7a"/><path d="M 294.88 379.12 A 8.42 8.42 0 0 1  303.3 370.7 L 303.3 379.12" fill="#70ff7a"/><path d="M 286.45 387.55 A 8.42 8.42 0 0 0 294.87 379.13 L 286.45 379.13" fill="#70ff7a"/><path d="M 294.88 379.13 A 8.42 8.42 0 0 0 303.3 387.55 L 303.3 379.13" fill="#70ff7a"/><rect x="370.7" y="370.7" width="16.849999999999994" height="16.849999999999994" fill="#111827"/><path d="M 370.7 379.12 A 8.42 8.42 0 0 0 379.12 370.7 L 370.7 370.7" fill="#70ff7a"/><path d="M 379.13 370.7 A 8.42 8.42 0 0 0 387.55 379.12 L 387.55 370.7" fill="#70ff7a"/><path d="M 370.7 379.13 A 8.42 8.42 0 0 1 379.12 387.55 L 370.7 387.55" fill="#70ff7a"/><path d="M 379.13 387.55 A 8.42 8.42 0 0 1  387.55 379.13 L 387.55 387.55" fill="#70ff7a"/><rect x="454.95" y="370.7" width="16.849999999999994" height="16.849999999999994" fill="#111827"/><path d="M 454.95 379.12 A 8.42 8.42 0 0 1  463.37 370.7 L 463.37 379.12" fill="#70ff7a"/><path d="M 463.38 370.7 A 8.42 8.42 0 0 1 471.8 379.12 L 463.38 379.12" fill="#70ff7a"/><path d="M 454.95 379.13 A 8.42 8.42 0 0 0 463.37 387.55 L 463.37 379.13" fill="#70ff7a"/><path d="M 463.38 387.55 A 8.42 8.42 0 0 0 471.8 379.13 L 463.38 379.13" fill="#70ff7a"/><rect x="539.2" y="370.7" width="16.849999999999994" height="16.849999999999994" fill="#111827"/><path d="M 539.2 379.12 A 8.42 8.42 0 0 1 547.62 370.7 L 547.62 372.805 A 6.3149999999999995 6.3149999999999995 0 0 0 541.3050000000001 379.12" fill="#70ff7a"/><path d="M 547.63 370.7 A 8.42 8.42 0 0 1 556.05 379.12 L 553.945 379.12 A 6.3149999999999995 6.3149999999999995 0 0 0 547.63 372.805" fill="#70ff7a"/><path d="M 539.2 379.13 A 8.42 8.42 0 0 0 547.62 387.55 L 547.62 385.445 A 6.3149999999999995 6.3149999999999995 0 0 1 541.3050000000001 379.13" fill="#70ff7a"/><path d="M 547.63 387.55 A 8.42 8.42 0 0 0 556.05 379.13 L 553.945 379.13 A 6.3149999999999995 6.3149999999999995 0 0 1 547.63 385.445" fill="#70ff7a"/><rect x="623.45" y="370.7" width="16.849999999999994" height="16.849999999999994" fill="#111827"/><polygon points="623.45,370.7 631.87,370.7 623.45,379.12" fill="#70ff7a"/><polygon points="631.88,370.7 640.3,370.7 640.3,379.12" fill="#70ff7a"/><polygon points="623.45,379.13 631.87,387.55 623.45,387.55" fill="#70ff7a"/><polygon points="640.3,379.13 640.3,387.55 631.88,387.55" fill="#70ff7a"/><rect x="707.7" y="370.7" width="16.849999999999994" height="16.849999999999994" fill="#111827"/><circle cx="711.9100000000001" cy="374.90999999999997" r="4.21" fill="#70ff7a"/><rect x="716.13" y="370.7" width="8.42" height="8.42" fill="#70ff7a"/><circle cx="711.9100000000001" cy="383.34" r="4.21" fill="#70ff7a"/><rect x="716.13" y="379.13" width="8.42" height="8.42" fill="#70ff7a"/><rect x="791.95" y="370.7" width="16.849999999999994" height="16.849999999999994" fill="#111827"/><path d="M 791.95 370.7 A 8.42 8.42 0 0 0 800.37 379.12 L 800.37 370.7" fill="#70ff7a"/><path d="M 800.38 379.12 A 8.42 8.42 0 0 0 808.8 370.7 L 800.38 370.7" fill="#70ff7a"/><path d="M 791.95 387.55 A 8.42 8.42 0 0 1  800.37 379.13 L 800.37 387.55" fill="#70ff7a"/><path d="M 800.38 379.13 A 8.42 8.42 0 0 1 808.8 387.55 L 800.38 387.55" fill="#70ff7a"/><rect x="876.2" y="370.7" width="16.849999999999994" height="16.849999999999994" fill="#111827"/><polygon points="876.2,370.7 884.62,370.7 876.2,379.12" fill="#70ff7a"/><polygon points="884.63,370.7 893.05,370.7 893.05,379.12" fill="#70ff7a"/><polygon points="876.2,379.13 884.62,387.55 876.2,387.55" fill="#70ff7a"/><polygon points="893.05,379.13 893.05,387.55 884.63,387.55" fill="#70ff7a"/><rect x="960.45" y="370.7" width="16.849999999999994" height="16.849999999999994" fill="#111827"/><polygon points="960.45,370.7 968.87,370.7 960.45,379.12" fill="#70ff7a"/><polygon points="968.88,370.7 977.3,370.7 977.3,379.12" fill="#70ff7a"/><polygon points="960.45,379.13 968.87,387.55 960.45,387.55" fill="#70ff7a"/><polygon points="977.3,379.13 977.3,387.55 968.88,387.55" fill="#70ff7a"/><rect x="33.7" y="454.95" width="16.849999999999994" height="16.849999999999994" fill="#111827"/><path d="M 33.7 454.95 A 8.42 8.42 0 0 1 42.120000000000005 463.37 L 33.7 463.37" fill="#70ff7a"/><path d="M 42.13 463.37 A 8.42 8.42 0 0 1  50.550000000000004 454.95 L 50.550000000000004 463.37" fill="#70ff7a"/><path d="M 33.7 471.8 A 8.42 8.42 0 0 0 42.120000000000005 463.38 L 33.7 463.38" fill="#70ff7a"/><path d="M 42.13 463.38 A 8.42 8.42 0 0 0 50.550000000000004 471.8 L 50.550000000000004 463.38" fill="#70ff7a"/><rect x="117.95" y="454.95" width="16.849999999999994" height="16.849999999999994" fill="#111827"/><path d="M 117.95 454.95 A 8.42 8.42 0 0 0 126.37 463.37 L 126.37 454.95" fill="#70ff7a"/><path d="M 126.38 463.37 A 8.42 8.42 0 0 0 134.79999999999998 454.95 L 126.38 454.95" fill="#70ff7a"/><path d="M 117.95 471.8 A 8.42 8.42 0 0 1  126.37 463.38 L 126.37 471.8" fill="#70ff7a"/><path d="M 126.38 463.38 A 8.42 8.42 0 0 1 134.79999999999998 471.8 L 126.38 471.8" fill="#70ff7a"/><rect x="202.2" y="454.95" width="16.849999999999994" height="16.849999999999994" fill="#111827"/><path d="M 202.2 463.37 A 8.42 8.42 0 0 0 210.61999999999998 454.95 L 202.2 454.95" fill="#70ff7a"/><path d="M 210.63 454.95 A 8.42 8.42 0 0 0 219.04999999999998 463.37 L 219.04999999999998 454.95" fill="#70ff7a"/><path d="M 202.2 463.38 A 8.42 8.42 0 0 1 210.61999999999998 471.8 L 202.2 471.8" fill="#70ff7a"/><path d="M 210.63 471.8 A 8.42 8.42 0 0 1  219.04999999999998 463.38 L 219.04999999999998 471.8" fill="#70ff7a"/><rect x="286.45" y="454.95" width="16.849999999999994" height="16.849999999999994" fill="#111827"/><circle cx="290.65999999999997" cy="459.15999999999997" r="4.21" fill="#70ff7a"/><rect x="294.88" y="454.95" width="8.42" height="8.42" fill="#70ff7a"/><circle cx="290.65999999999997" cy="467.59" r="4.21" fill="#70ff7a"/><rect x="294.88" y="463.38" width="8.42" height="8.42" fill="#70ff7a"/><rect x="370.7" y="454.95" width="16.849999999999994" height="16.849999999999994" fill="#111827"/><path d="M 370.7 463.37 A 8.42 8.42 0 0 1  379.12 454.95 L 379.12 463.37" fill="#70ff7a"/><path d="M 379.13 454.95 A 8.42 8.42 0 0 1 387.55 463.37 L 379.13 463.37" fill="#70ff7a"/><path d="M 370.7 463.38 A 8.42 8.42 0 0 0 379.12 471.8 L 379.12 463.38" fill="#70ff7a"/><path d="M 379.13 471.8 A 8.42 8.42 0 0 0 387.55 463.38 L 379.13 463.38" fill="#70ff7a"/><rect x="454.95" y="454.95" width="16.849999999999994" height="16.849999999999994" fill="#111827"/><polygon points="454.95,454.95 463.37,454.95 454.95,463.37" fill="#70ff7a"/><polygon points="463.38,454.95 471.8,454.95 471.8,463.37" fill="#70ff7a"/><polygon points="463.37,463.38 463.37,471.8 454.95,471.8" fill="#70ff7a"/><polygon points="463.38,463.38 471.8,471.8 463.38,471.8" fill="#70ff7a"/><rect x="539.2" y="454.95" width="16.849999999999994" height="16.849999999999994" fill="#111827"/><circle cx="543.4100000000001" cy="459.15999999999997" r="4.21" fill="#70ff7a"/><rect x="547.63" y="454.95" width="8.42" height="8.42" fill="#70ff7a"/><circle cx="543.4100000000001" cy="467.59" r="4.21" fill="#70ff7a"/><rect x="547.63" y="463.38" width="8.42" height="8.42" fill="#70ff7a"/><rect x="623.45" y="454.95" width="16.849999999999994" height="16.849999999999994" fill="#111827"/><path d="M 623.45 463.37 A 8.42 8.42 0 0 1 631.87 454.95 L 631.87 457.055 A 6.3149999999999995 6.3149999999999995 0 0 0 625.5550000000001 463.37" fill="#70ff7a"/><path d="M 631.88 454.95 A 8.42 8.42 0 0 1 640.3 463.37 L 638.195 463.37 A 6.3149999999999995 6.3149999999999995 0 0 0 631.88 457.055" fill="#70ff7a"/><path d="M 623.45 463.38 A 8.42 8.42 0 0 0 631.87 471.8 L 631.87 469.695 A 6.3149999999999995 6.3149999999999995 0 0 1 625.5550000000001 463.38" fill="#70ff7a"/><path d="M 631.88 471.8 A 8.42 8.42 0 0 0 640.3 463.38 L 638.195 463.38 A 6.3149999999999995 6.3149999999999995 0 0 1 631.88 469.695" fill="#70ff7a"/><rect x="707.7" y="454.95" width="16.849999999999994" height="16.849999999999994" fill="#111827"/><path d="M 707.7 454.95 A 8.42 8.42 0 0 0 716.12 463.37 L 716.12 454.95" fill="#70ff7a"/><path d="M 716.13 463.37 A 8.42 8.42 0 0 0 724.55 454.95 L 716.13 454.95" fill="#70ff7a"/><path d="M 707.7 471.8 A 8.42 8.42 0 0 1  716.12 463.38 L 716.12 471.8" fill="#70ff7a"/><path d="M 716.13 463.38 A 8.42 8.42 0 0 1 724.55 471.8 L 716.13 471.8" fill="#70ff7a"/><rect x="791.95" y="454.95" width="16.849999999999994" height="16.849999999999994" fill="#111827"/><path d="M 791.95 463.37 A 8.42 8.42 0 0 1 800.37 454.95 L 800.37 457.055 A 6.3149999999999995 6.3149999999999995 0 0 0 794.0550000000001 463.37" fill="#70ff7a"/><path d="M 800.38 454.95 A 8.42 8.42 0 0 1 808.8 463.37 L 806.695 463.37 A 6.3149999999999995 6.3149999999999995 0 0 0 800.38 457.055" fill="#70ff7a"/><path d="M 791.95 463.38 A 8.42 8.42 0 0 0 800.37 471.8 L 800.37 469.695 A 6.3149999999999995 6.3149999999999995 0 0 1 794.0550000000001 463.38" fill="#70ff7a"/><path d="M 800.38 471.8 A 8.42 8.42 0 0 0 808.8 463.38 L 806.695 463.38 A 6.3149999999999995 6.3149999999999995 0 0 1 800.38 469.695" fill="#70ff7a"/><rect x="876.2" y="454.95" width="16.849999999999994" height="16.849999999999994" fill="#111827"/><path d="M 876.2 463.37 A 8.42 8.42 0 0 1  884.62 454.95 L 884.62 463.37" fill="#70ff7a"/><path d="M 884.63 454.95 A 8.42 8.42 0 0 1 893.05 463.37 L 884.63 463.37" fill="#70ff7a"/><path d="M 876.2 463.38 A 8.42 8.42 0 0 0 884.62 471.8 L 884.62 463.38" fill="#70ff7a"/><path d="M 884.63 471.8 A 8.42 8.42 0 0 0 893.05 463.38 L 884.63 463.38" fill="#70ff7a"/><rect x="960.45" y="454.95" width="16.849999999999994" height="16.849999999999994" fill="#111827"/><polygon points="960.45,454.95 968.87,454.95 960.45,463.37" fill="#70ff7a"/><polygon points="968.88,454.95 977.3,454.95 977.3,463.37" fill="#70ff7a"/><polygon points="960.45,463.38 968.87,471.8 960.45,471.8" fill="#70ff7a"/><polygon points="977.3,463.38 977.3,471.8 968.88,471.8" fill="#70ff7a"/><rect x="33.7" y="539.2" width="16.849999999999994" height="16.849999999999994" fill="#111827"/><path d="M 33.7 547.62 A 8.42 8.42 0 0 1  42.120000000000005 539.2 L 42.120000000000005 547.62" fill="#70ff7a"/><path d="M 42.13 539.2 A 8.42 8.42 0 0 1 50.550000000000004 547.62 L 42.13 547.62" fill="#70ff7a"/><path d="M 33.7 547.63 A 8.42 8.42 0 0 0 42.120000000000005 556.05 L 42.120000000000005 547.63" fill="#70ff7a"/><path d="M 42.13 556.05 A 8.42 8.42 0 0 0 50.550000000000004 547.63 L 42.13 547.63" fill="#70ff7a"/><rect x="117.95" y="539.2" width="16.849999999999994" height="16.849999999999994" fill="#111827"/><polygon points="117.95,539.2 126.37,539.2 117.95,547.62" fill="#70ff7a"/><polygon points="126.38,539.2 134.79999999999998,539.2 134.79999999999998,547.62" fill="#70ff7a"/><polygon points="117.95,547.63 126.37,556.05 117.95,556.05" fill="#70ff7a"/><polygon points="134.79999999999998,547.63 134.79999999999998,556.05 126.38,556.05" fill="#70ff7a"/><rect x="202.2" y="539.2" width="16.849999999999994" height="16.849999999999994" fill="#111827"/><path d="M 202.2 539.2 A 8.42 8.42 0 0 0 210.61999999999998 547.62 L 210.61999999999998 539.2" fill="#70ff7a"/><path d="M 210.63 547.62 A 8.42 8.42 0 0 0 219.04999999999998 539.2 L 210.63 539.2" fill="#70ff7a"/><path d="M 202.2 556.05 A 8.42 8.42 0 0 1  210.61999999999998 547.63 L 210.61999999999998 556.05" fill="#70ff7a"/><path d="M 210.63 547.63 A 8.42 8.42 0 0 1 219.04999999999998 556.05 L 210.63 556.05" fill="#70ff7a"/><rect x="286.45" y="539.2" width="16.849999999999994" height="16.849999999999994" fill="#111827"/><polygon points="286.45,539.2 294.87,539.2 286.45,547.62" fill="#70ff7a"/><polygon points="303.3,539.2 303.3,547.62 294.88,547.62" fill="#70ff7a"/><polygon points="286.45,547.63 294.87,547.63 294.87,556.05" fill="#70ff7a"/><polygon points="294.88,547.63 303.3,556.05 294.88,556.05" fill="#70ff7a"/><rect x="370.7" y="539.2" width="16.849999999999994" height="16.849999999999994" fill="#111827"/><polygon points="370.7,539.2 379.12,539.2 370.7,547.62" fill="#70ff7a"/><polygon points="387.55,539.2 387.55,547.62 379.13,547.62" fill="#70ff7a"/><polygon points="370.7,547.63 379.12,547.63 379.12,556.05" fill="#70ff7a"/><polygon points="379.13,547.63 387.55,556.05 379.13,556.05" fill="#70ff7a"/><rect x="454.95" y="539.2" width="16.849999999999994" height="16.849999999999994" fill="#111827"/><circle cx="459.15999999999997" cy="543.4100000000001" r="4.21" fill="#70ff7a"/><rect x="463.38" y="539.2" width="8.42" height="8.42" fill="#70ff7a"/><circle cx="459.15999999999997" cy="551.84" r="4.21" fill="#70ff7a"/><rect x="463.38" y="547.63" width="8.42" height="8.42" fill="#70ff7a"/><rect x="539.2" y="539.2" width="16.849999999999994" height="16.849999999999994" fill="#111827"/><circle cx="543.4100000000001" cy="543.4100000000001" r="4.21" fill="#70ff7a"/><rect x="547.63" y="539.2" width="8.42" height="8.42" fill="#70ff7a"/><circle cx="543.4100000000001" cy="551.84" r="4.21" fill="#70ff7a"/><rect x="547.63" y="547.63" width="8.42" height="8.42" fill="#70ff7a"/><rect x="623.45" y="539.2" width="16.849999999999994" height="16.849999999999994" fill="#111827"/><circle cx="627.6600000000001" cy="543.4100000000001" r="4.21" fill="#70ff7a"/><rect x="631.88" y="539.2" width="8.42" height="8.42" fill="#70ff7a"/><circle cx="627.6600000000001" cy="551.84" r="4.21" fill="#70ff7a"/><rect x="631.88" y="547.63" width="8.42" height="8.42" fill="#70ff7a"/><rect x="707.7" y="539.2" width="16.849999999999994" height="16.849999999999994" fill="#111827"/><circle cx="711.9100000000001" cy="543.4100000000001" r="4.21" fill="#70ff7a"/><rect x="716.13" y="539.2" width="8.42" height="8.42" fill="#70ff7a"/><circle cx="711.9100000000001" cy="551.84" r="4.21" fill="#70ff7a"/><rect x="716.13" y="547.63" width="8.42" height="8.42" fill="#70ff7a"/><rect x="791.95" y="539.2" width="16.849999999999994" height="16.849999999999994" fill="#111827"/><path d="M 791.95 539.2 A 8.42 8.42 0 0 1 800.37 547.62 L 791.95 547.62" fill="#70ff7a"/><path d="M 800.38 547.62 A 8.42 8.42 0 0 1  808.8 539.2 L 808.8 547.62" fill="#70ff7a"/><path d="M 791.95 556.05 A 8.42 8.42 0 0 0 800.37 547.63 L 791.95 547.63" fill="#70ff7a"/><path d="M 800.38 547.63 A 8.42 8.42 0 0 0 808.8 556.05 L 808.8 547.63" fill="#70ff7a"/><rect x="876.2" y="539.2" width="16.849999999999994" height="16.849999999999994" fill="#111827"/><path d="M 876.2 539.2 A 8.42 8.42 0 0 0 884.62 547.62 L 884.62 539.2" fill="#70ff7a"/><path d="M 884.63 547.62 A 8.42 8.42 0 0 0 893.05 539.2 L 884.63 539.2" fill="#70ff7a"/><path d="M 876.2 556.05 A 8.42 8.42 0 0 1  884.62 547.63 L 884.62 556.05" fill="#70ff7a"/><path d="M 884.63 547.63 A 8.42 8.42 0 0 1 893.05 556.05 L 884.63 556.05" fill="#70ff7a"/><rect x="960.45" y="539.2" width="16.849999999999994" height="16.849999999999994" fill="#111827"/><path d="M 960.45 539.2 A 8.42 8.42 0 0 0 968.87 547.62 L 968.87 539.2" fill="#70ff7a"/><path d="M 968.88 547.62 A 8.42 8.42 0 0 0 977.3 539.2 L 968.88 539.2" fill="#70ff7a"/><path d="M 960.45 556.05 A 8.42 8.42 0 0 1  968.87 547.63 L 968.87 556.05" fill="#70ff7a"/><path d="M 968.88 547.63 A 8.42 8.42 0 0 1 977.3 556.05 L 968.88 556.05" fill="#70ff7a"/><rect x="33.7" y="623.45" width="16.849999999999994" height="16.849999999999994" fill="#111827"/><polygon points="33.7,623.45 42.120000000000005,623.45 33.7,631.87" fill="#70ff7a"/><polygon points="42.13,623.45 50.550000000000004,623.45 50.550000000000004,631.87" fill="#70ff7a"/><polygon points="42.120000000000005,631.88 42.120000000000005,640.3 33.7,640.3" fill="#70ff7a"/><polygon points="42.13,631.88 50.550000000000004,640.3 42.13,640.3" fill="#70ff7a"/><rect x="117.95" y="623.45" width="16.849999999999994" height="16.849999999999994" fill="#111827"/><polygon points="117.95,623.45 126.37,623.45 117.95,631.87" fill="#70ff7a"/><polygon points="126.38,623.45 134.79999999999998,623.45 134.79999999999998,631.87" fill="#70ff7a"/><polygon points="126.37,631.88 126.37,640.3 117.95,640.3" fill="#70ff7a"/><polygon points="126.38,631.88 134.79999999999998,640.3 126.38,640.3" fill="#70ff7a"/><rect x="202.2" y="623.45" width="16.849999999999994" height="16.849999999999994" fill="#111827"/><path d="M 202.2 631.87 A 8.42 8.42 0 0 1 210.61999999999998 623.45 L 210.61999999999998 625.5550000000001 A 6.3149999999999995 6.3149999999999995 0 0 0 204.30499999999998 631.87" fill="#70ff7a"/><path d="M 210.63 623.45 A 8.42 8.42 0 0 1 219.04999999999998 631.87 L 216.945 631.87 A 6.3149999999999995 6.3149999999999995 0 0 0 210.63 625.5550000000001" fill="#70ff7a"/><path d="M 202.2 631.88 A 8.42 8.42 0 0 0 210.61999999999998 640.3 L 210.61999999999998 638.195 A 6.3149999999999995 6.3149999999999995 0 0 1 204.30499999999998 631.88" fill="#70ff7a"/><path d="M 210.63 640.3 A 8.42 8.42 0 0 0 219.04999999999998 631.88 L 216.945 631.88 A 6.3149999999999995 6.3149999999999995 0 0 1 210.63 638.195" fill="#70ff7a"/><rect x="286.45" y="623.45" width="16.849999999999994" height="16.849999999999994" fill="#111827"/><polygon points="286.45,623.45 294.87,623.45 286.45,631.87" fill="#70ff7a"/><polygon points="294.88,623.45 303.3,623.45 303.3,631.87" fill="#70ff7a"/><polygon points="294.87,631.88 294.87,640.3 286.45,640.3" fill="#70ff7a"/><polygon points="294.88,631.88 303.3,640.3 294.88,640.3" fill="#70ff7a"/><rect x="370.7" y="623.45" width="16.849999999999994" height="16.849999999999994" fill="#111827"/><polygon points="370.7,623.45 379.12,623.45 370.7,631.87" fill="#70ff7a"/><polygon points="379.13,623.45 387.55,623.45 387.55,631.87" fill="#70ff7a"/><polygon points="370.7,631.88 379.12,640.3 370.7,640.3" fill="#70ff7a"/><polygon points="387.55,631.88 387.55,640.3 379.13,640.3" fill="#70ff7a"/><rect x="454.95" y="623.45" width="16.849999999999994" height="16.849999999999994" fill="#111827"/><path d="M 454.95 631.87 A 8.42 8.42 0 0 1 463.37 623.45 L 463.37 625.5550000000001 A 6.3149999999999995 6.3149999999999995 0 0 0 457.055 631.87" fill="#70ff7a"/><path d="M 463.38 623.45 A 8.42 8.42 0 0 1 471.8 631.87 L 469.695 631.87 A 6.3149999999999995 6.3149999999999995 0 0 0 463.38 625.5550000000001" fill="#70ff7a"/><path d="M 454.95 631.88 A 8.42 8.42 0 0 0 463.37 640.3 L 463.37 638.195 A 6.3149999999999995 6.3149999999999995 0 0 1 457.055 631.88" fill="#70ff7a"/><path d="M 463.38 640.3 A 8.42 8.42 0 0 0 471.8 631.88 L 469.695 631.88 A 6.3149999999999995 6.3149999999999995 0 0 1 463.38 638.195" fill="#70ff7a"/><rect x="539.2" y="623.45" width="16.849999999999994" height="16.849999999999994" fill="#111827"/><path d="M 539.2 631.87 A 8.42 8.42 0 0 1 547.62 623.45 L 547.62 625.5550000000001 A 6.3149999999999995 6.3149999999999995 0 0 0 541.3050000000001 631.87" fill="#70ff7a"/><path d="M 547.63 623.45 A 8.42 8.42 0 0 1 556.05 631.87 L 553.945 631.87 A 6.3149999999999995 6.3149999999999995 0 0 0 547.63 625.5550000000001" fill="#70ff7a"/><path d="M 539.2 631.88 A 8.42 8.42 0 0 0 547.62 640.3 L 547.62 638.195 A 6.3149999999999995 6.3149999999999995 0 0 1 541.3050000000001 631.88" fill="#70ff7a"/><path d="M 547.63 640.3 A 8.42 8.42 0 0 0 556.05 631.88 L 553.945 631.88 A 6.3149999999999995 6.3149999999999995 0 0 1 547.63 638.195" fill="#70ff7a"/><rect x="623.45" y="623.45" width="16.849999999999994" height="16.849999999999994" fill="#111827"/><path d="M 623.45 623.45 A 8.42 8.42 0 0 1 631.87 631.87 L 623.45 631.87" fill="#70ff7a"/><path d="M 631.88 631.87 A 8.42 8.42 0 0 1  640.3 623.45 L 640.3 631.87" fill="#70ff7a"/><path d="M 623.45 640.3 A 8.42 8.42 0 0 0 631.87 631.88 L 623.45 631.88" fill="#70ff7a"/><path d="M 631.88 631.88 A 8.42 8.42 0 0 0 640.3 640.3 L 640.3 631.88" fill="#70ff7a"/><rect x="707.7" y="623.45" width="16.849999999999994" height="16.849999999999994" fill="#111827"/><path d="M 707.7 623.45 A 8.42 8.42 0 0 0 716.12 631.87 L 716.12 623.45" fill="#70ff7a"/><path d="M 716.13 631.87 A 8.42 8.42 0 0 0 724.55 623.45 L 716.13 623.45" fill="#70ff7a"/><path d="M 707.7 640.3 A 8.42 8.42 0 0 1  716.12 631.88 L 716.12 640.3" fill="#70ff7a"/><path d="M 716.13 631.88 A 8.42 8.42 0 0 1 724.55 640.3 L 716.13 640.3" fill="#70ff7a"/><rect x="791.95" y="623.45" width="16.849999999999994" height="16.849999999999994" fill="#111827"/><polygon points="791.95,623.45 800.37,623.45 791.95,631.87" fill="#70ff7a"/><polygon points="800.38,623.45 808.8,623.45 808.8,631.87" fill="#70ff7a"/><polygon points="800.37,631.88 800.37,640.3 791.95,640.3" fill="#70ff7a"/><polygon points="800.38,631.88 808.8,640.3 800.38,640.3" fill="#70ff7a"/><rect x="876.2" y="623.45" width="16.849999999999994" height="16.849999999999994" fill="#111827"/><path d="M 876.2 631.87 A 8.42 8.42 0 0 1 884.62 623.45 L 884.62 625.5550000000001 A 6.3149999999999995 6.3149999999999995 0 0 0 878.3050000000001 631.87" fill="#70ff7a"/><path d="M 884.63 623.45 A 8.42 8.42 0 0 1 893.05 631.87 L 890.945 631.87 A 6.3149999999999995 6.3149999999999995 0 0 0 884.63 625.5550000000001" fill="#70ff7a"/><path d="M 876.2 631.88 A 8.42 8.42 0 0 0 884.62 640.3 L 884.62 638.195 A 6.3149999999999995 6.3149999999999995 0 0 1 878.3050000000001 631.88" fill="#70ff7a"/><path d="M 884.63 640.3 A 8.42 8.42 0 0 0 893.05 631.88 L 890.945 631.88 A 6.3149999999999995 6.3149999999999995 0 0 1 884.63 638.195" fill="#70ff7a"/><rect x="960.45" y="623.45" width="16.849999999999994" height="16.849999999999994" fill="#111827"/><path d="M 960.45 631.87 A 8.42 8.42 0 0 1  968.87 623.45 L 968.87 631.87" fill="#70ff7a"/><path d="M 968.88 623.45 A 8.42 8.42 0 0 1 977.3 631.87 L 968.88 631.87" fill="#70ff7a"/><path d="M 960.45 631.88 A 8.42 8.42 0 0 0 968.87 640.3 L 968.87 631.88" fill="#70ff7a"/><path d="M 968.88 640.3 A 8.42 8.42 0 0 0 977.3 631.88 L 968.88 631.88" fill="#70ff7a"/></g></svg>